<svg width="292" height="293" viewBox="0 0 292 293" fill="none" xmlns="http://www.w3.org/2000/svg">
<mask id="mask0_227_888" style="mask-type:alpha" maskUnits="userSpaceOnUse" x="44" y="39" width="208" height="241">
<path d="M250.803 228.649L250.804 228.703L250.814 228.757C251.08 230.074 250.717 231.549 249.669 233.182C248.621 234.817 246.911 236.566 244.578 238.395C239.912 242.049 232.852 245.946 223.918 249.836C206.059 257.612 180.825 265.317 152.593 271.015C124.361 276.713 98.01 279.396 78.4282 279.152C68.6327 279.03 60.561 278.176 54.803 276.616C51.9229 275.835 49.6523 274.885 48.0391 273.784C46.4499 272.7 45.5415 271.5 45.2617 270.204L46.4371 40.2495L250.016 40.3325L250.803 228.649Z" fill="#C4C4C4" stroke="black"/>
</mask>
<g mask="url(#mask0_227_888)">
<path d="M197.606 84.9568C196.966 84.5906 196.312 84.2388 195.651 83.9445C194.003 83.2428 192.215 82.9364 190.427 83.0499C188.64 83.1633 186.904 83.6935 185.36 84.5978L86.4393 141.744H86.3962C86.0295 141.952 85.6771 142.182 85.3175 142.418C82.8949 144.053 80.9082 146.254 79.5298 148.828C78.1514 151.403 77.4229 154.275 77.4073 157.193V440.469C77.4005 442.118 77.8398 443.74 78.6789 445.161C79.5181 446.582 80.7258 447.751 82.175 448.545L99.4767 458.517C98.099 457.709 96.9573 456.554 96.165 455.169C95.3728 453.783 94.9576 452.215 94.9608 450.62V167.366C94.9704 164.498 95.668 161.675 96.9956 159.132C98.323 156.588 100.242 154.4 102.59 152.749L202.927 94.7348C204.628 93.7468 206.552 93.2102 208.519 93.1762C210.484 93.1423 212.428 93.6121 214.16 94.5409L197.606 84.9568Z" fill="url(#paint0_linear_227_888)" stroke="black" stroke-width="0.8" stroke-miterlimit="10"/>
<path d="M103.281 151.744L202.223 94.7059C203.988 93.6877 205.99 93.1518 208.029 93.1523C210.068 93.1529 212.07 93.6897 213.834 94.7088C215.599 95.7279 217.064 97.1933 218.08 98.9572C219.097 100.721 219.629 102.722 219.626 104.757V386.862C219.627 389.131 219.03 391.361 217.893 393.327C216.757 395.293 215.123 396.926 213.154 398.061L108.164 458.574C106.758 459.384 105.164 459.811 103.541 459.811C101.918 459.811 100.324 459.385 98.9181 458.575C97.5125 457.766 96.3449 456.6 95.5329 455.198C94.7209 453.796 94.2929 452.203 94.292 450.584V167.287C94.2921 164.137 95.1228 161.042 96.7007 158.313C98.2785 155.585 100.548 153.32 103.281 151.744Z" fill="black" stroke="black" stroke-width="0.8" stroke-miterlimit="10"/>
<path d="M207.437 101.368L106.043 159.634C104.746 160.378 103.67 161.45 102.921 162.741C102.172 164.034 101.778 165.5 101.778 166.993V449.327C101.779 449.773 101.896 450.21 102.119 450.596C102.341 450.983 102.661 451.304 103.046 451.529C103.431 451.755 103.868 451.874 104.315 451.879C104.761 451.883 105.2 451.77 105.59 451.553L209.615 393.473C210.707 392.862 211.617 391.97 212.249 390.892C212.88 389.813 213.213 388.585 213.211 387.335V104.692C213.211 104.018 213.033 103.355 212.695 102.771C212.357 102.187 211.871 101.702 211.286 101.365C210.701 101.028 210.037 100.851 209.361 100.852C208.686 100.852 208.021 101.03 207.437 101.368Z" fill="url(#paint1_linear_227_888)" stroke="black" stroke-width="0.8" stroke-miterlimit="10"/>
<g filter="url(#filter0_i_227_888)">
<path d="M146.583 198.965L183.703 191.233C184.126 191.148 184.484 191.627 184.502 192.301L184.63 196.573L149.348 208.312C149.081 208.438 148.786 208.499 148.487 208.487C148.188 208.476 147.899 208.394 147.645 208.248C147.391 208.102 147.182 207.897 147.037 207.654C146.894 207.411 146.819 207.138 146.822 206.86L146.583 198.965Z" fill="#43FA76"/>
</g>
<g filter="url(#filter1_i_227_888)">
<path d="M147.847 184.275C148.199 184.09 148.59 183.987 148.989 183.971L176.489 183.167C177.068 183.167 177.538 183.801 177.566 184.623L177.714 189.797L146.824 194.676L146.585 186.429C146.573 185.991 146.683 185.56 146.905 185.179C147.128 184.8 147.454 184.487 147.847 184.275Z" fill="#43FA76"/>
</g>
<g filter="url(#filter2_i_227_888)">
<path d="M165.031 208.274L184.506 200.432L184.625 204.512C184.649 204.801 184.602 205.092 184.487 205.359C184.371 205.628 184.191 205.866 183.962 206.054L166.707 215.234C165.916 215.65 165.244 215.234 165.21 214.271L165.031 208.274Z" fill="#43FA76"/>
</g>
<path d="M77.3719 246.822C56.6032 255.174 44.531 263.829 45.8613 270.419C48.3 282.5 96.117 283.072 152.664 271.695C209.21 260.319 253.073 241.302 250.634 229.221C249.459 223.397 237.735 220.248 219.572 219.823" stroke="black"/>
<path d="M42.0196 118.034C42.0196 99.9157 23.8936 99.9157 23.8936 99.9157C23.8936 99.9157 42.0196 99.9157 42.0196 81.7969C42.0196 99.9157 60.1516 99.9157 60.1516 99.9157C60.1516 99.9157 42.0196 99.9157 42.0196 118.034Z" fill="#003333"/>
<path d="M68.7411 127.965C68.7411 119.693 60.4658 119.693 60.4658 119.693C60.4658 119.693 68.7411 119.693 68.7411 111.421C68.7411 119.693 77.0163 119.693 77.0163 119.693C77.0163 119.693 68.7411 119.693 68.7411 127.965Z" fill="#003333"/>
<path d="M236.505 269.278C236.505 261.012 228.229 261.012 228.229 261.012C228.229 261.012 236.505 261.012 236.505 252.74C236.505 261.012 244.774 261.012 244.774 261.012C244.774 261.012 236.505 261.012 236.505 269.278Z" fill="#003333"/>
</g>
<defs>
<filter id="filter0_i_227_888" x="144.583" y="191.223" width="40.0469" height="19.2656" filterUnits="userSpaceOnUse" color-interpolation-filters="sRGB">
<feFlood flood-opacity="0" result="BackgroundImageFix"/>
<feBlend mode="normal" in="SourceGraphic" in2="BackgroundImageFix" result="shape"/>
<feColorMatrix in="SourceAlpha" type="matrix" values="0 0 0 0 0 0 0 0 0 0 0 0 0 0 0 0 0 0 127 0" result="hardAlpha"/>
<feOffset dx="-2" dy="2"/>
<feGaussianBlur stdDeviation="2"/>
<feComposite in2="hardAlpha" operator="arithmetic" k2="-1" k3="1"/>
<feColorMatrix type="matrix" values="0 0 0 0 0 0 0 0 0 0 0 0 0 0 0 0 0 0 0.25 0"/>
<feBlend mode="normal" in2="shape" result="effect1_innerShadow_227_888"/>
</filter>
<filter id="filter1_i_227_888" x="144.584" y="183.167" width="33.1299" height="13.5098" filterUnits="userSpaceOnUse" color-interpolation-filters="sRGB">
<feFlood flood-opacity="0" result="BackgroundImageFix"/>
<feBlend mode="normal" in="SourceGraphic" in2="BackgroundImageFix" result="shape"/>
<feColorMatrix in="SourceAlpha" type="matrix" values="0 0 0 0 0 0 0 0 0 0 0 0 0 0 0 0 0 0 127 0" result="hardAlpha"/>
<feOffset dx="-2" dy="2"/>
<feGaussianBlur stdDeviation="2"/>
<feComposite in2="hardAlpha" operator="arithmetic" k2="-1" k3="1"/>
<feColorMatrix type="matrix" values="0 0 0 0 0 0 0 0 0 0 0 0 0 0 0 0 0 0 0.25 0"/>
<feBlend mode="normal" in2="shape" result="effect1_innerShadow_227_888"/>
</filter>
<filter id="filter2_i_227_888" x="163.031" y="200.432" width="21.6006" height="16.9629" filterUnits="userSpaceOnUse" color-interpolation-filters="sRGB">
<feFlood flood-opacity="0" result="BackgroundImageFix"/>
<feBlend mode="normal" in="SourceGraphic" in2="BackgroundImageFix" result="shape"/>
<feColorMatrix in="SourceAlpha" type="matrix" values="0 0 0 0 0 0 0 0 0 0 0 0 0 0 0 0 0 0 127 0" result="hardAlpha"/>
<feOffset dx="-2" dy="2"/>
<feGaussianBlur stdDeviation="2"/>
<feComposite in2="hardAlpha" operator="arithmetic" k2="-1" k3="1"/>
<feColorMatrix type="matrix" values="0 0 0 0 0 0 0 0 0 0 0 0 0 0 0 0 0 0 0.25 0"/>
<feBlend mode="normal" in2="shape" result="effect1_innerShadow_227_888"/>
</filter>
<linearGradient id="paint0_linear_227_888" x1="92.2855" y1="225.897" x2="118.813" y2="142.594" gradientUnits="userSpaceOnUse">
<stop stop-color="#003333"/>
<stop offset="1" stop-color="#668585"/>
</linearGradient>
<linearGradient id="paint1_linear_227_888" x1="203.388" y1="105.288" x2="105.173" y2="451.768" gradientUnits="userSpaceOnUse">
<stop stop-color="#003333"/>
<stop offset="1" stop-color="#335C5C"/>
</linearGradient>
</defs>
</svg>
