<svg width="52" height="53" viewBox="0 0 52 53" fill="none" xmlns="http://www.w3.org/2000/svg">
<g filter="url(#filter0_d_5_572)">
<rect x="10" y="5.39996" width="32" height="32" rx="8" fill="white" shape-rendering="crispEdges"/>
<g clip-path="url(#clip0_5_572)">
<path opacity="0.6" d="M31.7391 15.9217H26.7826C26.6383 15.9217 26.5217 16.0383 26.5217 16.1826V21.1391C26.5217 21.238 26.5776 21.3282 26.666 21.3726C26.7028 21.3908 26.7429 21.4 26.7826 21.4C26.8379 21.4 26.8932 21.3825 26.9391 21.3478L28.9564 19.8347H31.7391C31.8834 19.8347 32 19.7181 32 19.5739V16.1826C32 16.0383 31.8834 15.9217 31.7391 15.9217Z" fill="#3A416F"/>
<path d="M25.9695 24.4939C25.4159 24.2727 24.5193 24.0087 23.3913 24.0087C22.2633 24.0087 21.3667 24.2727 20.8129 24.4939C20.3193 24.6919 20 25.1664 20 25.7028V26.6174C20 26.7616 20.1166 26.8782 20.2609 26.8782H26.5217C26.666 26.8782 26.7826 26.7616 26.7826 26.6174V25.7028C26.7826 25.1664 26.4633 24.6919 25.9695 24.4939Z" fill="#3A416F"/>
<path d="M23.3913 23.226C24.5475 23.226 25.4782 21.7988 25.4782 20.6174C25.4782 19.4667 24.542 18.5304 23.3913 18.5304C22.2406 18.5304 21.3043 19.4667 21.3043 20.6174C21.3043 21.7988 22.2351 23.226 23.3913 23.226Z" fill="#3A416F"/>
</g>
</g>
<defs>
<filter id="filter0_d_5_572" x="0" y="0.399963" width="52" height="52" filterUnits="userSpaceOnUse" color-interpolation-filters="sRGB">
<feFlood flood-opacity="0" result="BackgroundImageFix"/>
<feColorMatrix in="SourceAlpha" type="matrix" values="0 0 0 0 0 0 0 0 0 0 0 0 0 0 0 0 0 0 127 0" result="hardAlpha"/>
<feOffset dy="5"/>
<feGaussianBlur stdDeviation="5"/>
<feComposite in2="hardAlpha" operator="out"/>
<feColorMatrix type="matrix" values="0 0 0 0 0 0 0 0 0 0 0 0 0 0 0 0 0 0 0.12 0"/>
<feBlend mode="normal" in2="BackgroundImageFix" result="effect1_dropShadow_5_572"/>
<feBlend mode="normal" in="SourceGraphic" in2="effect1_dropShadow_5_572" result="shape"/>
</filter>
<clipPath id="clip0_5_572">
<rect width="12" height="12" fill="white" transform="translate(20 15.4)"/>
</clipPath>
</defs>
</svg>
