<svg width="52" height="53" viewBox="0 0 52 53" fill="none" xmlns="http://www.w3.org/2000/svg">
<g filter="url(#filter0_d_5_585)">
<rect x="10" y="5.98999" width="32" height="32" rx="8" fill="white" shape-rendering="crispEdges"/>
<g clip-path="url(#clip0_5_585)">
<path d="M31.79 16.202C31.6898 16.1011 31.5514 16.0477 31.4095 16.055C24.3955 16.421 21.8045 22.669 21.7795 22.732C21.7047 22.9178 21.748 23.1303 21.8895 23.272L24.718 26.1005C24.8604 26.2427 25.0742 26.2856 25.2605 26.2095C25.323 26.184 31.5375 23.564 31.9345 16.583C31.9426 16.4412 31.8901 16.3027 31.79 16.202ZM27.707 21.697C27.421 21.983 26.9909 22.0687 26.6171 21.9139C26.2434 21.7591 25.9998 21.3945 25.9998 20.99C25.9998 20.5855 26.2434 20.2208 26.6171 20.0661C26.9909 19.9113 27.421 19.9969 27.707 20.283C28.0974 20.6735 28.0974 21.3065 27.707 21.697Z" fill="#3A416F"/>
<path opacity="0.6" d="M20.5565 25.412C20.9153 25.0507 21.4399 24.9088 21.9319 25.0401C22.4239 25.1713 22.8082 25.5556 22.9394 26.0476C23.0706 26.5395 22.9288 27.0641 22.5675 27.423C22.012 27.9785 20 27.99 20 27.99C20 27.99 20 25.967 20.5565 25.412Z" fill="#3A416F"/>
<path opacity="0.6" d="M25.1785 17.1605C23.7483 16.9115 22.2865 17.375 21.261 18.4025C20.9936 18.6723 20.7611 18.9747 20.569 19.3025C20.4533 19.499 20.4852 19.7488 20.6465 19.91L21.641 20.905C22.5651 19.4384 23.7668 18.1664 25.1785 17.1605Z" fill="#3A416F"/>
<path opacity="0.6" d="M30.8295 22.8115C31.0784 24.2417 30.615 25.7034 29.5875 26.729C29.3176 26.9964 29.0153 27.2288 28.6875 27.421C28.491 27.5367 28.2412 27.5048 28.08 27.3435L27.085 26.349C28.5516 25.4249 29.8236 24.2232 30.8295 22.8115Z" fill="#3A416F"/>
</g>
</g>
<defs>
<filter id="filter0_d_5_585" x="0" y="0.98999" width="52" height="52" filterUnits="userSpaceOnUse" color-interpolation-filters="sRGB">
<feFlood flood-opacity="0" result="BackgroundImageFix"/>
<feColorMatrix in="SourceAlpha" type="matrix" values="0 0 0 0 0 0 0 0 0 0 0 0 0 0 0 0 0 0 127 0" result="hardAlpha"/>
<feOffset dy="5"/>
<feGaussianBlur stdDeviation="5"/>
<feComposite in2="hardAlpha" operator="out"/>
<feColorMatrix type="matrix" values="0 0 0 0 0 0 0 0 0 0 0 0 0 0 0 0 0 0 0.12 0"/>
<feBlend mode="normal" in2="BackgroundImageFix" result="effect1_dropShadow_5_585"/>
<feBlend mode="normal" in="SourceGraphic" in2="effect1_dropShadow_5_585" result="shape"/>
</filter>
<clipPath id="clip0_5_585">
<rect width="12" height="20" fill="white" transform="translate(20 11.99)"/>
</clipPath>
</defs>
</svg>
